<svg id="Layer_1" data-name="Layer 1" xmlns="http://www.w3.org/2000/svg" xmlns:xlink="http://www.w3.org/1999/xlink" viewBox="0 0 25.07 10.01"><defs><style>.cls-1{fill:url(#linear-gradient);}.cls-2{fill:#4b99d3;}.cls-3{fill:url(#linear-gradient-2);}.cls-4{fill:url(#linear-gradient-3);}.cls-5{opacity:0.22;font-size:4.8px;fill:#de8b33;}.cls-5,.cls-6{font-family:BrushScriptMT, Brush Script MT;}.cls-6{font-size:4.8px;}.cls-6,.cls-7{fill:#ed2227;}</style><linearGradient id="linear-gradient" x1="4.9" y1="2.67" x2="10.6" y2="2.67" gradientTransform="translate(-4.21 6.26) rotate(-32.55)" gradientUnits="userSpaceOnUse"><stop offset="0.01" stop-color="#3ec6f2"/><stop offset="0.08" stop-color="#3fc1ef"/><stop offset="0.17" stop-color="#43b4e5"/><stop offset="0.25" stop-color="#4a9dd6"/><stop offset="0.27" stop-color="#4b99d3"/><stop offset="0.56" stop-color="#4b97d2"/><stop offset="0.67" stop-color="#4990cd"/><stop offset="0.76" stop-color="#4784c4"/><stop offset="0.82" stop-color="#4573b8"/><stop offset="0.85" stop-color="#436ab2"/></linearGradient><linearGradient id="linear-gradient-2" x1="5.25" y1="4.75" x2="10.68" y2="4.75" gradientTransform="translate(-4.21 6.26) rotate(-32.55)" gradientUnits="userSpaceOnUse"><stop offset="0.15" stop-color="#b7181b"/><stop offset="0.24" stop-color="#bc1c20"/><stop offset="0.34" stop-color="#c9282d"/><stop offset="0.45" stop-color="#df3b44"/><stop offset="0.49" stop-color="#e8434d"/><stop offset="0.68" stop-color="#e7454b"/><stop offset="0.76" stop-color="#e44c44"/><stop offset="0.81" stop-color="#df5838"/><stop offset="0.83" stop-color="#dc5f31"/></linearGradient><linearGradient id="linear-gradient-3" x1="8.22" y1="8.54" x2="9.96" y2="8.54" gradientTransform="translate(-0.95 -1.34) rotate(-5.47)" gradientUnits="userSpaceOnUse"><stop offset="0.15" stop-color="#bf2027"/><stop offset="0.29" stop-color="#c12527"/><stop offset="0.46" stop-color="#c63227"/><stop offset="0.63" stop-color="#ce4927"/><stop offset="0.71" stop-color="#d35627"/><stop offset="0.85" stop-color="#d55727"/><stop offset="0.9" stop-color="#dc5a26"/><stop offset="0.93" stop-color="#e86024"/><stop offset="0.95" stop-color="#f26522"/></linearGradient></defs><path class="cls-1" d="M3.7.94C2,2,.68,2.81.37,3A.84.84,0,0,0,0,3.4a.54.54,0,0,0,0,.33c0,.16.17.25.38.4l0,0c.18.13.34.27.53.39.36.21.88.56,1.65,1.08a.65.65,0,0,1,.3.44c0,.12-.33,1.3-.28,1.54,0,.08.1.45.41.52a.63.63,0,0,0,.65-.37c.07-.14.28-1.46.4-2a.61.61,0,0,0,0-.3c-.06-.19-.22-.3-.52-.49-.1-.06-.43-.29-.56-.36a10.79,10.79,0,0,1-1.48-1L5.22,1.32Z"/><path class="cls-2" d="M3.64,1,5.09.08s.37-.22.58.08.92,1.4.92,1.4a.56.56,0,0,1-.24.63.64.64,0,0,1-.66,0l-.52-.8-.1.06Z"/><path class="cls-3" d="M8.53,6.36l-3,1.86L6,5.11s.16-.55-.61-1a12.57,12.57,0,0,0-1.68-1,.46.46,0,0,0-.5.27c-.33.58.6,1,.6,1l.81.44a.49.49,0,0,1,.24.43A14.32,14.32,0,0,1,4.59,7L4.27,8.91s-.28,1.55.64,1L8.3,7.78Z"/><path class="cls-4" d="M8.2,7.84l.24-1.42,0,0-.42-.64a.57.57,0,0,1,0-.72L8.19,5a.44.44,0,0,1,.45-.06A.39.39,0,0,1,8.77,5a.55.55,0,0,1,.13.09l.75,1.14s.33.53.07.71S8.2,7.84,8.2,7.84Z"/><text class="cls-5" transform="translate(10.06 7) scale(1.02 1)">Siggmaa</text><text class="cls-6" transform="translate(10.01 6.87) scale(1.02 1)">Siggmaa</text><circle class="cls-7" cx="24.86" cy="6.04" r="0.21"/></svg>